<svg width="1165" height="872" viewBox="0 0 1165 872" fill="none" xmlns="http://www.w3.org/2000/svg">
<path d="M647.774 860.499H766.058L838.205 739.428L766.058 619.906H647.774L577.175 739.428L647.774 860.499Z" stroke="#3D19A4" stroke-opacity="0.2" stroke-width="5"/>
<circle cx="15.7918" cy="15.7918" r="15.7918" transform="matrix(0 -1 -1 0 852.139 755.53)" fill="#3D19A4" fill-opacity="0.2"/>
<circle cx="15.7918" cy="15.7918" r="15.7918" transform="matrix(0 -1 -1 0 593.277 755.53)" fill="#3D19A4" fill-opacity="0.2"/>
<circle cx="15.7918" cy="15.7918" r="15.7918" transform="matrix(0 -1 -1 0 781.54 635.388)" fill="#3D19A4" fill-opacity="0.2"/>
<circle cx="15.7918" cy="15.7918" r="15.7918" transform="matrix(0 -1 -1 0 666.972 635.388)" fill="#3D19A4" fill-opacity="0.2"/>
<circle cx="15.7918" cy="15.7918" r="15.7918" transform="matrix(0 -1 -1 0 666.972 876.291)" fill="#3D19A4" fill-opacity="0.2"/>
<circle cx="15.7918" cy="15.7918" r="15.7918" transform="matrix(0 -1 -1 0 781.54 876.291)" fill="#3D19A4" fill-opacity="0.2"/>
<path d="M462.607 739.738H580.891L653.038 618.667L580.891 499.145H462.607L392.009 618.667L462.607 739.738Z" stroke="#3D19A4" stroke-opacity="0.2" stroke-width="5"/>
<circle cx="15.7918" cy="15.7918" r="15.7918" transform="matrix(0 -1 -1 0 666.972 634.769)" fill="#3D19A4" fill-opacity="0.2"/>
<circle cx="15.7918" cy="15.7918" r="15.7918" transform="matrix(0 -1 -1 0 408.11 634.769)" fill="#3D19A4" fill-opacity="0.2"/>
<circle cx="15.7918" cy="15.7918" r="15.7918" transform="matrix(0 -1 -1 0 596.373 514.627)" fill="#3D19A4" fill-opacity="0.2"/>
<circle cx="15.7918" cy="15.7918" r="15.7918" transform="matrix(0 -1 -1 0 481.805 514.627)" fill="#3D19A4" fill-opacity="0.2"/>
<circle cx="15.7918" cy="15.7918" r="15.7918" transform="matrix(0 -1 -1 0 481.805 755.53)" fill="#3D19A4" fill-opacity="0.2"/>
<circle cx="15.7918" cy="15.7918" r="15.7918" transform="matrix(0 -1 -1 0 596.373 755.53)" fill="#3D19A4" fill-opacity="0.2"/>
<path d="M650.87 618.977H769.154L841.301 497.906L769.154 378.384H650.87L580.272 497.906L650.87 618.977Z" stroke="#3D19A4" stroke-opacity="0.2" stroke-width="5"/>
<circle cx="15.7918" cy="15.7918" r="15.7918" transform="matrix(0 -1 -1 0 855.235 514.008)" fill="#3D19A4" fill-opacity="0.2"/>
<circle cx="15.7918" cy="15.7918" r="15.7918" transform="matrix(0 -1 -1 0 596.373 514.008)" fill="#3D19A4" fill-opacity="0.2"/>
<circle cx="15.7918" cy="15.7918" r="15.7918" transform="matrix(0 -1 -1 0 784.636 393.866)" fill="#3D19A4" fill-opacity="0.2"/>
<circle cx="15.7918" cy="15.7918" r="15.7918" transform="matrix(0 -1 -1 0 670.068 393.866)" fill="#3D19A4" fill-opacity="0.2"/>
<circle cx="15.7918" cy="15.7918" r="15.7918" transform="matrix(0 -1 -1 0 670.068 634.769)" fill="#3D19A4" fill-opacity="0.2"/>
<circle cx="15.7918" cy="15.7918" r="15.7918" transform="matrix(0 -1 -1 0 784.636 634.769)" fill="#3D19A4" fill-opacity="0.2"/>
<path d="M839.134 739.119H957.417L1029.56 618.048L957.417 498.526H839.134L768.535 618.048L839.134 739.119Z" stroke="#3D19A4" stroke-opacity="0.2" stroke-width="5"/>
<circle cx="15.7918" cy="15.7918" r="15.7918" transform="matrix(0 -1 -1 0 1043.5 634.15)" fill="#3D19A4" fill-opacity="0.2"/>
<circle cx="15.7918" cy="15.7918" r="15.7918" transform="matrix(0 -1 -1 0 784.636 634.15)" fill="#3D19A4" fill-opacity="0.2"/>
<circle cx="15.7918" cy="15.7918" r="15.7918" transform="matrix(0 -1 -1 0 972.9 514.008)" fill="#3D19A4" fill-opacity="0.2"/>
<circle cx="15.7918" cy="15.7918" r="15.7918" transform="matrix(0 -1 -1 0 858.331 514.008)" fill="#3D19A4" fill-opacity="0.2"/>
<circle cx="15.7918" cy="15.7918" r="15.7918" transform="matrix(0 -1 -1 0 858.331 754.911)" fill="#3D19A4" fill-opacity="0.2"/>
<circle cx="15.7918" cy="15.7918" r="15.7918" transform="matrix(0 -1 -1 0 972.9 754.911)" fill="#3D19A4" fill-opacity="0.2"/>
<path d="M271.248 618.358H389.531L461.678 497.287L389.531 377.765H271.248L200.649 497.287L271.248 618.358Z" stroke="#3D19A4" stroke-opacity="0.2" stroke-width="5"/>
<circle cx="15.7918" cy="15.7918" r="15.7918" transform="matrix(0 -1 -1 0 475.612 513.389)" fill="#3D19A4" fill-opacity="0.2"/>
<circle cx="15.7918" cy="15.7918" r="15.7918" transform="matrix(0 -1 -1 0 216.75 513.389)" fill="#3D19A4" fill-opacity="0.2"/>
<circle cx="15.7918" cy="15.7918" r="15.7918" transform="matrix(0 -1 -1 0 405.014 393.247)" fill="#3D19A4" fill-opacity="0.2"/>
<circle cx="15.7918" cy="15.7918" r="15.7918" transform="matrix(0 -1 -1 0 290.445 393.247)" fill="#3D19A4" fill-opacity="0.2"/>
<circle cx="15.7918" cy="15.7918" r="15.7918" transform="matrix(0 -1 -1 0 290.445 634.15)" fill="#3D19A4" fill-opacity="0.2"/>
<circle cx="15.7918" cy="15.7918" r="15.7918" transform="matrix(0 -1 -1 0 405.014 634.15)" fill="#3D19A4" fill-opacity="0.2"/>
<path d="M86.0809 497.597H204.365L276.512 376.526L204.365 257.004H86.0809L15.4822 376.526L86.0809 497.597Z" stroke="#3D19A4" stroke-opacity="0.2" stroke-width="5"/>
<circle cx="15.7918" cy="15.7918" r="15.7918" transform="matrix(0 -1 -1 0 290.445 392.628)" fill="#3D19A4" fill-opacity="0.2"/>
<circle cx="15.7918" cy="15.7918" r="15.7918" transform="matrix(0 -1 -1 0 31.5836 392.628)" fill="#3D19A4" fill-opacity="0.2"/>
<circle cx="15.7918" cy="15.7918" r="15.7918" transform="matrix(0 -1 -1 0 219.847 272.486)" fill="#3D19A4" fill-opacity="0.2"/>
<circle cx="15.7918" cy="15.7918" r="15.7918" transform="matrix(0 -1 -1 0 105.279 272.486)" fill="#3D19A4" fill-opacity="0.2"/>
<circle cx="15.7918" cy="15.7918" r="15.7918" transform="matrix(0 -1 -1 0 105.279 513.389)" fill="#3D19A4" fill-opacity="0.2"/>
<circle cx="15.7918" cy="15.7918" r="15.7918" transform="matrix(0 -1 -1 0 219.847 513.389)" fill="#3D19A4" fill-opacity="0.2"/>
<path d="M274.344 376.836H392.628L464.775 255.765L392.628 136.243H274.344L203.745 255.765L274.344 376.836Z" stroke="#3D19A4" stroke-opacity="0.2" stroke-width="5"/>
<circle cx="15.7918" cy="15.7918" r="15.7918" transform="matrix(0 -1 -1 0 478.709 271.867)" fill="#3D19A4" fill-opacity="0.2"/>
<circle cx="15.7918" cy="15.7918" r="15.7918" transform="matrix(0 -1 -1 0 219.847 271.867)" fill="#3D19A4" fill-opacity="0.2"/>
<circle cx="15.7918" cy="15.7918" r="15.7918" transform="matrix(0 -1 -1 0 408.11 151.725)" fill="#3D19A4" fill-opacity="0.2"/>
<circle cx="15.7918" cy="15.7918" r="15.7918" transform="matrix(0 -1 -1 0 293.542 151.725)" fill="#3D19A4" fill-opacity="0.2"/>
<circle cx="15.7918" cy="15.7918" r="15.7918" transform="matrix(0 -1 -1 0 293.542 392.628)" fill="#3D19A4" fill-opacity="0.2"/>
<circle cx="15.7918" cy="15.7918" r="15.7918" transform="matrix(0 -1 -1 0 408.11 392.628)" fill="#3D19A4" fill-opacity="0.2"/>
<path d="M462.607 496.978H580.891L653.038 375.907L580.891 256.385H462.607L392.009 375.907L462.607 496.978Z" stroke="#3D19A4" stroke-opacity="0.2" stroke-width="5"/>
<circle cx="15.7918" cy="15.7918" r="15.7918" transform="matrix(0 -1 -1 0 666.972 392.009)" fill="#3D19A4" fill-opacity="0.2"/>
<circle cx="15.7918" cy="15.7918" r="15.7918" transform="matrix(0 -1 -1 0 408.11 392.009)" fill="#3D19A4" fill-opacity="0.2"/>
<circle cx="15.7918" cy="15.7918" r="15.7918" transform="matrix(0 -1 -1 0 596.373 271.867)" fill="#3D19A4" fill-opacity="0.2"/>
<circle cx="15.7918" cy="15.7918" r="15.7918" transform="matrix(0 -1 -1 0 481.805 271.867)" fill="#3D19A4" fill-opacity="0.2"/>
<circle cx="15.7918" cy="15.7918" r="15.7918" transform="matrix(0 -1 -1 0 481.805 512.769)" fill="#3D19A4" fill-opacity="0.2"/>
<circle cx="15.7918" cy="15.7918" r="15.7918" transform="matrix(0 -1 -1 0 596.373 512.769)" fill="#3D19A4" fill-opacity="0.2"/>
<path d="M837.276 498.216H955.56L1027.71 377.146L955.56 257.623H837.276L766.677 377.146L837.276 498.216Z" stroke="#3D19A4" stroke-opacity="0.2" stroke-width="5"/>
<circle cx="15.7918" cy="15.7918" r="15.7918" transform="matrix(0 -1 -1 0 1041.64 393.247)" fill="#3D19A4" fill-opacity="0.2"/>
<circle cx="15.7918" cy="15.7918" r="15.7918" transform="matrix(0 -1 -1 0 782.779 393.247)" fill="#3D19A4" fill-opacity="0.2"/>
<circle cx="15.7918" cy="15.7918" r="15.7918" transform="matrix(0 -1 -1 0 971.042 273.105)" fill="#3D19A4" fill-opacity="0.2"/>
<circle cx="15.7918" cy="15.7918" r="15.7918" transform="matrix(0 -1 -1 0 856.474 273.105)" fill="#3D19A4" fill-opacity="0.2"/>
<circle cx="15.7918" cy="15.7918" r="15.7918" transform="matrix(0 -1 -1 0 856.474 514.008)" fill="#3D19A4" fill-opacity="0.2"/>
<circle cx="15.7918" cy="15.7918" r="15.7918" transform="matrix(0 -1 -1 0 971.042 514.008)" fill="#3D19A4" fill-opacity="0.2"/>
<path d="M652.109 377.455H770.393L842.54 256.385L770.393 136.862H652.109L581.51 256.385L652.109 377.455Z" stroke="#3D19A4" stroke-opacity="0.2" stroke-width="5"/>
<circle cx="15.7918" cy="15.7918" r="15.7918" transform="matrix(0 -1 -1 0 856.474 272.486)" fill="#3D19A4" fill-opacity="0.2"/>
<circle cx="15.7918" cy="15.7918" r="15.7918" transform="matrix(0 -1 -1 0 597.612 272.486)" fill="#3D19A4" fill-opacity="0.2"/>
<circle cx="15.7918" cy="15.7918" r="15.7918" transform="matrix(0 -1 -1 0 785.875 152.344)" fill="#3D19A4" fill-opacity="0.2"/>
<circle cx="15.7918" cy="15.7918" r="15.7918" transform="matrix(0 -1 -1 0 671.307 152.344)" fill="#3D19A4" fill-opacity="0.2"/>
<circle cx="15.7918" cy="15.7918" r="15.7918" transform="matrix(0 -1 -1 0 671.307 393.247)" fill="#3D19A4" fill-opacity="0.2"/>
<circle cx="15.7918" cy="15.7918" r="15.7918" transform="matrix(0 -1 -1 0 785.875 393.247)" fill="#3D19A4" fill-opacity="0.2"/>
<path d="M840.372 256.694H958.656L1030.8 135.624L958.656 16.1013H840.372L769.773 135.624L840.372 256.694Z" stroke="#3D19A4" stroke-opacity="0.2" stroke-width="5"/>
<circle cx="15.7918" cy="15.7918" r="15.7918" transform="matrix(0 -1 -1 0 1044.74 151.725)" fill="#3D19A4" fill-opacity="0.2"/>
<circle cx="15.7918" cy="15.7918" r="15.7918" transform="matrix(0 -1 -1 0 785.875 151.725)" fill="#3D19A4" fill-opacity="0.2"/>
<circle cx="15.7918" cy="15.7918" r="15.7918" transform="matrix(0 -1 -1 0 974.138 31.5835)" fill="#3D19A4" fill-opacity="0.2"/>
<circle cx="15.7918" cy="15.7918" r="15.7918" transform="matrix(0 -1 -1 0 859.57 31.5835)" fill="#3D19A4" fill-opacity="0.2"/>
<circle cx="15.7918" cy="15.7918" r="15.7918" transform="matrix(0 -1 -1 0 859.57 272.486)" fill="#3D19A4" fill-opacity="0.2"/>
<circle cx="15.7918" cy="15.7918" r="15.7918" transform="matrix(0 -1 -1 0 974.138 272.486)" fill="#3D19A4" fill-opacity="0.2"/>
<path d="M1028.64 376.836H1146.92L1219.07 255.765L1146.92 136.243H1028.64L958.037 255.765L1028.64 376.836Z" stroke="#3D19A4" stroke-opacity="0.2" stroke-width="5"/>
<circle cx="15.7918" cy="15.7918" r="15.7918" transform="matrix(0 -1 -1 0 974.138 271.867)" fill="#3D19A4" fill-opacity="0.2"/>
<circle cx="15.7918" cy="15.7918" r="15.7918" transform="matrix(0 -1 -1 0 1162.4 151.725)" fill="#3D19A4" fill-opacity="0.2"/>
<circle cx="15.7918" cy="15.7918" r="15.7918" transform="matrix(0 -1 -1 0 1047.83 151.725)" fill="#3D19A4" fill-opacity="0.2"/>
<circle cx="15.7918" cy="15.7918" r="15.7918" transform="matrix(0 -1 -1 0 1047.83 392.628)" fill="#3D19A4" fill-opacity="0.2"/>
<circle cx="15.7918" cy="15.7918" r="15.7918" transform="matrix(0 -1 -1 0 1162.4 392.628)" fill="#3D19A4" fill-opacity="0.2"/>
<path d="M719.774 981.499H838.058L910.205 860.428L838.058 740.906H719.774L649.175 860.428L719.774 981.499Z" stroke="#3D19A4" stroke-width="5"/>
<circle cx="15.7918" cy="15.7918" r="15.7918" transform="matrix(0 -1 -1 0 924.139 876.53)" fill="#3D19A4"/>
<circle cx="15.7918" cy="15.7918" r="15.7918" transform="matrix(0 -1 -1 0 665.277 876.53)" fill="#3D19A4"/>
<circle cx="15.7918" cy="15.7918" r="15.7918" transform="matrix(0 -1 -1 0 853.54 756.388)" fill="#3D19A4"/>
<circle cx="15.7918" cy="15.7918" r="15.7918" transform="matrix(0 -1 -1 0 738.972 756.388)" fill="#3D19A4"/>
<path d="M534.607 860.738H652.891L725.038 739.667L652.891 620.145H534.607L464.009 739.667L534.607 860.738Z" stroke="#3D19A4" stroke-width="5"/>
<circle cx="15.7918" cy="15.7918" r="15.7918" transform="matrix(0 -1 -1 0 738.972 755.769)" fill="#3D19A4"/>
<circle cx="15.7918" cy="15.7918" r="15.7918" transform="matrix(0 -1 -1 0 480.11 755.769)" fill="#3D19A4"/>
<circle cx="15.7918" cy="15.7918" r="15.7918" transform="matrix(0 -1 -1 0 668.373 635.627)" fill="#3D19A4"/>
<circle cx="15.7918" cy="15.7918" r="15.7918" transform="matrix(0 -1 -1 0 553.805 635.627)" fill="#3D19A4"/>
<circle cx="15.7918" cy="15.7918" r="15.7918" transform="matrix(0 -1 -1 0 553.805 876.53)" fill="#3D19A4"/>
<circle cx="15.7918" cy="15.7918" r="15.7918" transform="matrix(0 -1 -1 0 668.373 876.53)" fill="#3D19A4"/>
<path d="M722.87 739.977H841.154L913.301 618.906L841.154 499.384H722.87L652.272 618.906L722.87 739.977Z" stroke="#3D19A4" stroke-width="5"/>
<circle cx="15.7918" cy="15.7918" r="15.7918" transform="matrix(0 -1 -1 0 927.235 635.008)" fill="#3D19A4"/>
<circle cx="15.7918" cy="15.7918" r="15.7918" transform="matrix(0 -1 -1 0 668.373 635.008)" fill="#3D19A4"/>
<circle cx="15.7918" cy="15.7918" r="15.7918" transform="matrix(0 -1 -1 0 856.636 514.866)" fill="#3D19A4"/>
<circle cx="15.7918" cy="15.7918" r="15.7918" transform="matrix(0 -1 -1 0 742.068 514.866)" fill="#3D19A4"/>
<circle cx="15.7918" cy="15.7918" r="15.7918" transform="matrix(0 -1 -1 0 742.068 755.769)" fill="#3D19A4"/>
<circle cx="15.7918" cy="15.7918" r="15.7918" transform="matrix(0 -1 -1 0 856.636 755.769)" fill="#3D19A4"/>
<path d="M911.134 860.119H1029.42L1101.56 739.048L1029.42 619.526H911.134L840.535 739.048L911.134 860.119Z" stroke="#3D19A4" stroke-width="5"/>
<circle cx="15.7918" cy="15.7918" r="15.7918" transform="matrix(0 -1 -1 0 1115.5 755.15)" fill="#3D19A4"/>
<circle cx="15.7918" cy="15.7918" r="15.7918" transform="matrix(0 -1 -1 0 856.636 755.15)" fill="#3D19A4"/>
<circle cx="15.7918" cy="15.7918" r="15.7918" transform="matrix(0 -1 -1 0 1044.9 635.008)" fill="#3D19A4"/>
<circle cx="15.7918" cy="15.7918" r="15.7918" transform="matrix(0 -1 -1 0 930.331 635.008)" fill="#3D19A4"/>
<circle cx="15.7918" cy="15.7918" r="15.7918" transform="matrix(0 -1 -1 0 930.331 875.911)" fill="#3D19A4"/>
<circle cx="15.7918" cy="15.7918" r="15.7918" transform="matrix(0 -1 -1 0 1044.9 875.911)" fill="#3D19A4"/>
<path d="M343.248 739.358H461.531L533.678 618.287L461.531 498.765H343.248L272.649 618.287L343.248 739.358Z" stroke="#3D19A4" stroke-width="5"/>
<circle cx="15.7918" cy="15.7918" r="15.7918" transform="matrix(0 -1 -1 0 547.612 634.389)" fill="#3D19A4"/>
<circle cx="15.7918" cy="15.7918" r="15.7918" transform="matrix(0 -1 -1 0 288.75 634.389)" fill="#3D19A4"/>
<circle cx="15.7918" cy="15.7918" r="15.7918" transform="matrix(0 -1 -1 0 477.014 514.247)" fill="#3D19A4"/>
<circle cx="15.7918" cy="15.7918" r="15.7918" transform="matrix(0 -1 -1 0 362.445 514.247)" fill="#3D19A4"/>
<circle cx="15.7918" cy="15.7918" r="15.7918" transform="matrix(0 -1 -1 0 362.445 755.15)" fill="#3D19A4"/>
<circle cx="15.7918" cy="15.7918" r="15.7918" transform="matrix(0 -1 -1 0 477.014 755.15)" fill="#3D19A4"/>
<path d="M158.081 618.597H276.365L348.512 497.526L276.365 378.004H158.081L87.4821 497.526L158.081 618.597Z" stroke="#3D19A4" stroke-width="5"/>
<circle cx="15.7918" cy="15.7918" r="15.7918" transform="matrix(0 -1 -1 0 362.445 513.628)" fill="#3D19A4"/>
<circle cx="15.7918" cy="15.7918" r="15.7918" transform="matrix(0 -1 -1 0 103.584 513.628)" fill="#3D19A4"/>
<circle cx="15.7918" cy="15.7918" r="15.7918" transform="matrix(0 -1 -1 0 291.847 393.486)" fill="#3D19A4"/>
<circle cx="15.7918" cy="15.7918" r="15.7918" transform="matrix(0 -1 -1 0 177.279 393.486)" fill="#3D19A4"/>
<circle cx="15.7918" cy="15.7918" r="15.7918" transform="matrix(0 -1 -1 0 177.279 634.389)" fill="#3D19A4"/>
<circle cx="15.7918" cy="15.7918" r="15.7918" transform="matrix(0 -1 -1 0 291.847 634.389)" fill="#3D19A4"/>
<path d="M346.344 497.836H464.628L536.775 376.765L464.628 257.243H346.344L275.745 376.765L346.344 497.836Z" stroke="#3D19A4" stroke-width="5"/>
<circle cx="15.7918" cy="15.7918" r="15.7918" transform="matrix(0 -1 -1 0 550.709 392.867)" fill="#3D19A4"/>
<circle cx="15.7918" cy="15.7918" r="15.7918" transform="matrix(0 -1 -1 0 291.847 392.867)" fill="#3D19A4"/>
<circle cx="15.7918" cy="15.7918" r="15.7918" transform="matrix(0 -1 -1 0 480.11 272.725)" fill="#3D19A4"/>
<circle cx="15.7918" cy="15.7918" r="15.7918" transform="matrix(0 -1 -1 0 365.542 272.725)" fill="#3D19A4"/>
<circle cx="15.7918" cy="15.7918" r="15.7918" transform="matrix(0 -1 -1 0 365.542 513.628)" fill="#3D19A4"/>
<circle cx="15.7918" cy="15.7918" r="15.7918" transform="matrix(0 -1 -1 0 480.11 513.628)" fill="#3D19A4"/>
<path d="M534.607 617.978H652.891L725.038 496.907L652.891 377.385H534.607L464.009 496.907L534.607 617.978Z" stroke="#3D19A4" stroke-width="5"/>
<circle cx="15.7918" cy="15.7918" r="15.7918" transform="matrix(0 -1 -1 0 738.972 513.009)" fill="#3D19A4"/>
<circle cx="15.7918" cy="15.7918" r="15.7918" transform="matrix(0 -1 -1 0 480.11 513.009)" fill="#3D19A4"/>
<circle cx="15.7918" cy="15.7918" r="15.7918" transform="matrix(0 -1 -1 0 668.373 392.867)" fill="#3D19A4"/>
<circle cx="15.7918" cy="15.7918" r="15.7918" transform="matrix(0 -1 -1 0 553.805 392.867)" fill="#3D19A4"/>
<circle cx="15.7918" cy="15.7918" r="15.7918" transform="matrix(0 -1 -1 0 553.805 633.769)" fill="#3D19A4"/>
<circle cx="15.7918" cy="15.7918" r="15.7918" transform="matrix(0 -1 -1 0 668.373 633.769)" fill="#3D19A4"/>
<path d="M909.276 619.216H1027.56L1099.71 498.146L1027.56 378.623H909.276L838.677 498.146L909.276 619.216Z" stroke="#3D19A4" stroke-width="5"/>
<circle cx="15.7918" cy="15.7918" r="15.7918" transform="matrix(0 -1 -1 0 1113.64 514.247)" fill="#3D19A4"/>
<circle cx="15.7918" cy="15.7918" r="15.7918" transform="matrix(0 -1 -1 0 854.779 514.247)" fill="#3D19A4"/>
<circle cx="15.7918" cy="15.7918" r="15.7918" transform="matrix(0 -1 -1 0 1043.04 394.105)" fill="#3D19A4"/>
<circle cx="15.7918" cy="15.7918" r="15.7918" transform="matrix(0 -1 -1 0 928.474 394.105)" fill="#3D19A4"/>
<circle cx="15.7918" cy="15.7918" r="15.7918" transform="matrix(0 -1 -1 0 928.474 635.008)" fill="#3D19A4"/>
<circle cx="15.7918" cy="15.7918" r="15.7918" transform="matrix(0 -1 -1 0 1043.04 635.008)" fill="#3D19A4"/>
<path d="M724.109 498.455H842.393L914.54 377.385L842.393 257.862H724.109L653.51 377.385L724.109 498.455Z" stroke="#3D19A4" stroke-width="5"/>
<circle cx="15.7918" cy="15.7918" r="15.7918" transform="matrix(0 -1 -1 0 928.474 393.486)" fill="#3D19A4"/>
<circle cx="15.7918" cy="15.7918" r="15.7918" transform="matrix(0 -1 -1 0 669.612 393.486)" fill="#3D19A4"/>
<circle cx="15.7918" cy="15.7918" r="15.7918" transform="matrix(0 -1 -1 0 857.875 273.344)" fill="#3D19A4"/>
<circle cx="15.7918" cy="15.7918" r="15.7918" transform="matrix(0 -1 -1 0 743.307 273.344)" fill="#3D19A4"/>
<circle cx="15.7918" cy="15.7918" r="15.7918" transform="matrix(0 -1 -1 0 743.307 514.247)" fill="#3D19A4"/>
<circle cx="15.7918" cy="15.7918" r="15.7918" transform="matrix(0 -1 -1 0 857.875 514.247)" fill="#3D19A4"/>
<path d="M912.372 377.694H1030.66L1102.8 256.624L1030.66 137.101H912.372L841.773 256.624L912.372 377.694Z" stroke="#3D19A4" stroke-width="5"/>
<circle cx="15.7918" cy="15.7918" r="15.7918" transform="matrix(0 -1 -1 0 1116.74 272.725)" fill="#3D19A4"/>
<circle cx="15.7918" cy="15.7918" r="15.7918" transform="matrix(0 -1 -1 0 857.875 272.725)" fill="#3D19A4"/>
<circle cx="15.7918" cy="15.7918" r="15.7918" transform="matrix(0 -1 -1 0 1046.14 152.583)" fill="#3D19A4"/>
<circle cx="15.7918" cy="15.7918" r="15.7918" transform="matrix(0 -1 -1 0 931.57 152.583)" fill="#3D19A4"/>
<circle cx="15.7918" cy="15.7918" r="15.7918" transform="matrix(0 -1 -1 0 931.57 393.486)" fill="#3D19A4"/>
<circle cx="15.7918" cy="15.7918" r="15.7918" transform="matrix(0 -1 -1 0 1046.14 393.486)" fill="#3D19A4"/>
<path d="M1100.64 497.836H1218.92L1291.07 376.765L1218.92 257.243H1100.64L1030.04 376.765L1100.64 497.836Z" stroke="#3D19A4" stroke-width="5"/>
<circle cx="15.7918" cy="15.7918" r="15.7918" transform="matrix(0 -1 -1 0 1046.14 392.867)" fill="#3D19A4"/>
<circle cx="15.7918" cy="15.7918" r="15.7918" transform="matrix(0 -1 -1 0 1119.83 272.725)" fill="#3D19A4"/>
<circle cx="15.7918" cy="15.7918" r="15.7918" transform="matrix(0 -1 -1 0 1119.83 513.628)" fill="#3D19A4"/>
</svg>
