<svg width="291" height="65" viewBox="0 0 291 65" fill="none" xmlns="http://www.w3.org/2000/svg">
<path d="M52.8956 0.86461V64.1046H41.3469L13.8338 24.3017H13.3706V64.1046H0V0.86461H11.734L39.0309 40.6366H39.5868V0.86461H52.8956Z" fill="#884BD6"/>
<path d="M63.544 63.544V52.5203L76.9146 37.4205H63.544V26.3967L76.9146 11.3278H63.544V0.30404H106.157V11.3278H76.9146L63.544 26.3967H103.965V37.4205H76.9146L63.544 52.5203H106.28V63.544H63.544Z" fill="#884BD6"/>
<path d="M129.722 0.86461L142.475 22.4181H142.969L155.784 0.86461H170.884L151.585 32.4846L171.316 64.1046H155.939L142.969 42.5203H142.475L129.506 64.1046H114.19L133.984 32.4846L114.561 0.86461H129.722Z" fill="#884BD6"/>
<path d="M218.407 0.86461H231.777V41.9336C231.777 46.5448 230.676 50.5797 228.473 54.0381C226.291 57.4965 223.234 60.1933 219.302 62.1284C215.37 64.0429 210.79 65.0001 205.561 65.0001C200.312 65.0001 195.721 64.0429 191.789 62.1284C187.857 60.1933 184.8 57.4965 182.618 54.0381C180.436 50.5797 179.345 46.5448 179.345 41.9336V0.86461H192.715V40.791C192.715 43.1996 193.24 45.3405 194.29 47.2139C195.361 49.0872 196.863 50.5591 198.798 51.6295C200.734 52.7 202.988 53.2352 205.561 53.2352C208.155 53.2352 210.409 52.7 212.323 51.6295C214.258 50.5591 215.751 49.0872 216.801 47.2139C217.871 45.3405 218.407 43.1996 218.407 40.791V0.86461Z" fill="#884BD6"/>
<path d="M277.084 19.0523C276.837 16.5614 275.777 14.6263 273.904 13.2471C272.03 11.8678 269.488 11.1782 266.277 11.1782C264.094 11.1782 262.252 11.487 260.749 12.1045C259.246 12.7015 258.094 13.5353 257.291 14.6057C256.509 15.6762 256.117 16.8908 256.117 18.2494C256.076 19.3817 256.313 20.3698 256.828 21.2138C257.363 22.0578 258.094 22.7886 259.02 23.4062C259.946 24.0032 261.017 24.5281 262.231 24.981C263.446 25.4133 264.743 25.7839 266.122 26.0927L271.804 27.4514C274.562 28.0689 277.094 28.8924 279.4 29.9217C281.706 30.951 283.703 32.217 285.391 33.7198C287.079 35.2225 288.386 36.9929 289.312 39.0309C290.259 41.069 290.743 43.4055 290.764 46.0405C290.743 49.9106 289.755 53.2661 287.799 56.107C285.864 58.9273 283.064 61.1197 279.4 62.6842C275.756 64.2281 271.361 65.0001 266.215 65.0001C261.109 65.0001 256.663 64.2178 252.875 62.6533C249.108 61.0888 246.164 58.7729 244.044 55.7056C241.944 52.6177 240.843 48.799 240.74 44.2495H253.678C253.822 46.3698 254.429 48.1402 255.5 49.5607C256.591 50.9605 258.042 52.0207 259.854 52.7412C261.686 53.4411 263.755 53.7911 266.06 53.7911C268.325 53.7911 270.291 53.4617 271.958 52.8029C273.646 52.1442 274.954 51.2281 275.88 50.0547C276.806 48.8813 277.269 47.5329 277.269 46.0096C277.269 44.5891 276.847 43.3952 276.003 42.4276C275.18 41.4601 273.965 40.6366 272.36 39.9573C270.775 39.278 268.829 38.6604 266.524 38.1046L259.638 36.3754C254.306 35.0784 250.096 33.0507 247.008 30.2922C243.92 27.5337 242.387 23.8179 242.407 19.1449C242.387 15.3159 243.406 11.9707 245.464 9.10928C247.543 6.24783 250.395 4.01426 254.018 2.40856C257.641 0.802852 261.758 0 266.369 0C271.063 0 275.159 0.802852 278.659 2.40856C282.179 4.01426 284.917 6.24783 286.873 9.10928C288.828 11.9707 289.837 15.2851 289.899 19.0523H277.084Z" fill="#884BD6"/>
</svg>
