<svg width="497" height="55" viewBox="0 0 497 55" fill="none" xmlns="http://www.w3.org/2000/svg">
<path d="M0 29H497V49H0V29Z" fill="#3D19A4" fill-opacity="0.66"/>
<path d="M14.466 42.9999V5.89992H33.069C35.4717 5.89992 37.6093 6.42992 39.482 7.48992C41.39 8.54992 42.9093 9.99858 44.04 11.8359C45.1707 13.6733 45.736 15.7403 45.736 18.0369C45.736 20.4749 45.153 22.6656 43.987 24.6089C42.821 26.5169 41.2487 28.0363 39.27 29.1669C37.3267 30.2623 35.1183 30.8099 32.645 30.8099H23.476V42.9999H14.466ZM23.317 22.9129H31.214C32.1327 22.9129 32.9807 22.7186 33.758 22.3299C34.5707 21.9059 35.2067 21.3406 35.666 20.6339C36.1607 19.9273 36.408 19.1146 36.408 18.1959C36.408 17.2773 36.1607 16.4999 35.666 15.8639C35.2067 15.2279 34.5707 14.7333 33.758 14.3799C32.9807 14.0266 32.1327 13.8499 31.214 13.8499H23.317V22.9129Z" fill="#FBF8FF"/>
<path d="M56.5501 42.9999V14.8569H64.6061V24.6342V19.7456L65.3481 18.8849C66.5141 17.4716 67.8391 16.3586 69.3231 15.5459C70.8424 14.6979 72.4501 14.2739 74.1461 14.2739C75.0647 14.2739 75.9304 14.3623 76.7431 14.5389C77.5911 14.7156 78.3154 14.9453 78.9161 15.2279L76.5841 24.5029C76.0541 24.1143 75.3297 23.8139 74.4111 23.6019C73.5277 23.3899 72.6267 23.2839 71.7081 23.2839C70.6834 23.2839 69.7471 23.4606 68.8991 23.8139C68.0864 24.1319 67.3974 24.5913 66.8321 25.1919C66.2667 25.7573 65.8251 26.4109 65.5071 27.1529C65.2244 27.8949 65.0831 28.6899 65.0831 29.5379V42.9999H56.5501Z" fill="#FBF8FF"/>
<path d="M101.34 43.5299C98.0545 43.5299 95.1395 42.8939 92.5955 41.6219C90.0515 40.3499 88.0551 38.6186 86.6065 36.4279C85.1578 34.2373 84.4335 31.7286 84.4335 28.9019C84.4335 26.0753 85.1578 23.5666 86.6065 21.3759C88.0551 19.1853 90.0515 17.4539 92.5955 16.1819C95.1395 14.9099 98.0545 14.2739 101.34 14.2739C104.591 14.2739 107.471 14.9099 109.979 16.1819C112.523 17.4539 114.52 19.1853 115.968 21.3759C117.417 23.5666 118.141 26.0753 118.141 28.9019C118.141 31.7286 117.417 34.2373 115.968 36.4279C114.52 38.6186 112.523 40.3499 109.979 41.6219C107.471 42.8939 104.591 43.5299 101.34 43.5299ZM101.34 36.2159C102.86 36.2159 104.238 35.8979 105.474 35.2619C106.746 34.6259 107.736 33.7603 108.442 32.6649C109.184 31.5696 109.538 30.3153 109.502 28.9019C109.538 27.4886 109.184 26.2166 108.442 25.0859C107.736 23.9553 106.746 23.0896 105.474 22.4889C104.238 21.8529 102.86 21.5349 101.34 21.5349C99.7858 21.5349 98.3548 21.8529 97.0475 22.4889C95.7755 23.1249 94.7861 23.9906 94.0795 25.0859C93.3728 26.1813 93.0195 27.4533 93.0195 28.9019C93.0195 30.3153 93.3728 31.5696 94.0795 32.6649C94.7861 33.7603 95.7755 34.6259 97.0475 35.2619C98.3548 35.8979 99.7858 36.2159 101.34 36.2159Z" fill="#FBF8FF"/>
<path d="M125.734 54.1299L122.501 47.2929C124.55 47.2929 126.158 46.9749 127.324 46.3389C128.49 45.7029 129.32 44.7136 129.815 43.3709C130.309 42.0283 130.557 40.2616 130.557 38.0709V14.8569H139.037V40.0849C139.037 43.2649 138.507 45.8796 137.447 47.9289C136.387 50.0136 134.867 51.5683 132.889 52.5929C130.945 53.6176 128.56 54.1299 125.734 54.1299ZM134.903 9.18592C133.277 9.18592 132.023 8.81492 131.14 8.07292C130.256 7.29558 129.815 6.21792 129.815 4.83992C129.815 3.53258 130.256 2.47258 131.14 1.65992C132.058 0.847251 133.313 0.440918 134.903 0.440918C136.493 0.440918 137.729 0.829585 138.613 1.60692C139.496 2.34892 139.938 3.42658 139.938 4.83992C139.938 6.11192 139.478 7.15425 138.56 7.96692C137.676 8.77959 136.457 9.18592 134.903 9.18592Z" fill="#FBF8FF"/>
<path d="M166.55 43.5299C163.123 43.5299 160.12 42.9116 157.54 41.6749C154.996 40.4029 153.018 38.6893 151.604 36.5339C150.191 34.3433 149.484 31.8523 149.484 29.0609C149.484 26.8349 149.891 24.8209 150.703 23.0189C151.516 21.2169 152.647 19.6623 154.095 18.3549C155.544 17.0476 157.24 16.0406 159.183 15.3339C161.127 14.6273 163.229 14.2739 165.49 14.2739C167.681 14.2739 169.695 14.6273 171.532 15.3339C173.37 16.0053 174.96 16.9769 176.302 18.2489C177.68 19.5209 178.74 21.0226 179.482 22.7539C180.224 24.4853 180.56 26.3933 180.489 28.4779L180.436 30.8629H157.82L157.434 28.4249L157.739 26L173.546 25.9339L172.831 25.9369L172.645 25.9339C172.539 25.0506 172.151 24.2556 171.479 23.5489C170.843 22.8423 170.013 22.2946 168.988 21.9059C167.964 21.4819 166.833 21.2699 165.596 21.2699C164.006 21.2699 162.593 21.5349 161.356 22.0649C160.12 22.5596 159.148 23.3369 158.441 24.3969C157.77 25.4569 157.739 26 157.434 28.4249C157.82 30.8629 157.841 31.3399 158.653 32.5059C159.501 33.6719 160.685 34.5906 162.204 35.2619C163.759 35.9333 165.579 36.2689 167.663 36.2689C169.465 36.2689 170.967 36.0569 172.168 35.6329C173.405 35.1736 174.518 34.6083 175.507 33.9369L179.323 39.4489C178.157 40.3323 176.868 41.0919 175.454 41.7279C174.076 42.3286 172.628 42.7703 171.108 43.0529C169.624 43.3709 168.105 43.5299 166.55 43.5299Z" fill="#FBF8FF"/>
<path d="M204.214 43.5299C201.105 43.5299 198.349 42.8939 195.946 41.6219C193.543 40.3499 191.653 38.6186 190.275 36.4279C188.897 34.2019 188.208 31.6933 188.208 28.9019C188.208 26.1106 188.897 23.6196 190.275 21.4289C191.653 19.2029 193.526 17.4539 195.893 16.1819C198.26 14.9099 200.946 14.2739 203.949 14.2739C206.811 14.2739 209.426 14.7156 211.793 15.5989C214.16 16.4469 216.086 17.6483 217.57 19.2029L212.959 25.0329C212.323 24.4323 211.563 23.8669 210.68 23.3369C209.797 22.8069 208.843 22.4006 207.818 22.1179C206.829 21.7999 205.804 21.6409 204.744 21.6409C203.119 21.6409 201.688 21.9589 200.451 22.5949C199.25 23.1956 198.313 24.0436 197.642 25.1389C197.006 26.2343 196.688 27.4886 196.688 28.9019C196.688 30.2446 197.024 31.4636 197.695 32.5589C198.366 33.6543 199.303 34.5199 200.504 35.1559C201.705 35.7919 203.101 36.1099 204.691 36.1099C205.963 36.1099 207.094 35.9863 208.083 35.7389C209.072 35.4916 209.973 35.1559 210.786 34.7319C211.634 34.2726 212.358 33.7603 212.959 33.1949L217.57 38.9719C215.98 40.3146 214.037 41.4099 211.74 42.2579C209.443 43.1059 206.935 43.5299 204.214 43.5299Z" fill="#FBF8FF"/>
<path d="M230.107 42.9999V22.2769V14.8569V7.11892H238.587V14.8569V22.2769V42.9999H230.107ZM223.853 22.2769V14.8569H230.107V22.2769H238.587V14.8569H245.742V22.2769H238.587H230.107H223.853Z" fill="#FBF8FF"/>
<path d="M277.292 42.9999V5.89992H285.56L307.979 32.3999L306.076 30.15C305.864 28.9133 306.071 29.7146 305.965 28.5839C305.859 27.4533 305.753 26.3579 305.647 25.2979C305.577 24.2379 305.506 23.1779 305.435 22.1179C305.4 21.0579 305.382 19.9449 305.382 18.7789C305.382 17.6129 305.382 16.3763 305.382 15.0689V5.89992H314.127V42.9999H305.753L285.235 18.7902L284.977 16.0229C285.083 17.2596 285.189 18.3726 285.295 19.3619C285.436 20.3513 285.543 21.2876 285.613 22.1709C285.719 23.0189 285.79 23.8846 285.825 24.7679C285.896 25.6159 285.949 26.5169 285.984 27.4709C286.019 28.4249 286.037 29.4673 286.037 30.5979V42.9999H277.292Z" fill="#FBF8FF"/>
<path d="M393.848 42.9999L381.075 26.3049L364.857 5.89992H376.04L388.442 22.1709L405.084 42.9999H393.848ZM364.592 42.9999L379.243 24L384.284 30.5L375.351 42.9999H364.592ZM390.5 24.7469L385.263 18L393.742 5.89992H404.501L390.5 24.7469Z" fill="#FBF8FF"/>
<path d="M429.498 43.3179C426.07 43.3179 423.049 42.6289 420.435 41.2509C417.82 39.8729 415.771 37.9826 414.287 35.5799C412.838 33.1773 412.114 30.4389 412.114 27.3649V5.89992H421.23V26.9939C421.23 28.5839 421.583 30.0149 422.29 31.2869C423.032 32.5589 424.021 33.5659 425.258 34.3079C426.494 35.0146 427.908 35.3679 429.498 35.3679C431.158 35.3679 432.607 35.0146 433.844 34.3079C435.116 33.5659 436.123 32.5589 436.865 31.2869C437.642 30.0149 438.031 28.5839 438.031 26.9939V5.89992H446.829V27.3649C446.829 30.4389 446.087 33.1773 444.603 35.5799C443.154 37.9826 441.122 39.8729 438.508 41.2509C435.893 42.6289 432.89 43.3179 429.498 43.3179Z" fill="#FBF8FF"/>
<path d="M472.955 43.5299C470.27 43.5299 467.832 43.2473 465.641 42.6819C463.486 42.1166 461.543 41.3216 459.811 40.2969C458.115 39.2369 456.561 38.0003 455.147 36.5869L460.076 30.0149C462.302 32.2409 464.528 33.7956 466.754 34.6789C469.016 35.5269 471.259 35.9509 473.485 35.9509C474.51 35.9509 475.499 35.8449 476.453 35.6329C477.443 35.3856 478.238 34.9969 478.838 34.4669C479.439 33.9369 479.739 33.2479 479.739 32.3999C479.739 31.8346 479.58 31.3576 479.262 30.9689C478.944 30.5449 478.503 30.1916 477.937 29.9089C477.372 29.6263 476.701 29.3789 475.923 29.1669C475.181 28.9549 474.386 28.7783 473.538 28.6369C472.726 28.4603 471.86 28.3013 470.941 28.1599C468.715 27.8066 466.737 27.3119 465.005 26.6759C463.309 26.0399 461.878 25.2449 460.712 24.2909C459.546 23.3369 458.645 22.2239 458.009 20.9519C457.409 19.6799 457.108 18.2313 457.108 16.6059C457.108 14.8746 457.515 13.3023 458.327 11.8889C459.175 10.4403 460.324 9.22125 461.772 8.23192C463.221 7.20725 464.899 6.42992 466.807 5.89992C468.715 5.33458 470.729 5.05192 472.849 5.05192C475.393 5.05192 477.602 5.29925 479.474 5.79392C481.382 6.28859 483.043 6.99525 484.456 7.91392C485.87 8.79725 487.053 9.83958 488.007 11.0409L482.972 16.7649C482.089 15.8816 481.1 15.1396 480.004 14.5389C478.909 13.9383 477.743 13.4789 476.506 13.1609C475.305 12.8429 474.086 12.6839 472.849 12.6839C471.613 12.6839 470.517 12.8253 469.563 13.1079C468.609 13.3553 467.85 13.7263 467.284 14.2209C466.719 14.7156 466.436 15.3339 466.436 16.0759C466.436 16.7119 466.666 17.2596 467.125 17.7189C467.585 18.1429 468.185 18.5139 468.927 18.8319C469.705 19.1499 470.57 19.4149 471.524 19.6269C472.478 19.8036 473.432 19.9626 474.386 20.1039C476.4 20.4219 478.291 20.8459 480.057 21.3759C481.824 21.8706 483.379 22.5419 484.721 23.3899C486.064 24.2026 487.106 25.2626 487.848 26.5699C488.626 27.8419 489.014 29.4319 489.014 31.3399C489.014 33.9193 488.308 36.1276 486.894 37.9649C485.516 39.7669 483.626 41.1449 481.223 42.0989C478.821 43.0529 476.065 43.5299 472.955 43.5299Z" fill="#FBF8FF"/>
<path d="M327 5.99992H356V12.9999H327V5.99992Z" fill="#FBF8FF"/>
<path d="M327 19.9999H356V27.9999H327V19.9999Z" fill="#FBF8FF"/>
<path d="M327 34.9999H356V42.9999H327V34.9999Z" fill="#FBF8FF"/>
</svg>
